<svg width="23" height="23" viewBox="0 0 23 23" fill="none" xmlns="http://www.w3.org/2000/svg">
<g clip-path="url(#clip0_2402_367)">
<path d="M21.0846 10.6193V11.5009C21.0835 13.5675 20.4143 15.5783 19.1769 17.2335C17.9395 18.8887 16.2003 20.0996 14.2185 20.6855C12.2368 21.2714 10.1187 21.2011 8.18017 20.4849C6.24166 19.7687 4.5866 18.4451 3.46181 16.7115C2.33702 14.9778 1.80277 12.927 1.93874 10.8649C2.07472 8.8028 2.87363 6.83991 4.21632 5.26896C5.55902 3.698 7.37355 2.60317 9.38932 2.14773C11.4051 1.6923 13.5141 1.90067 15.4017 2.74176M21.0846 3.83426L11.5013 13.4272L8.62631 10.5522" stroke="#F3F3F3" stroke-width="4" stroke-linecap="round" stroke-linejoin="round"/>
</g>
<defs>
<clipPath id="clip0_2402_367">
<rect width="23" height="23" fill="white"/>
</clipPath>
</defs>
</svg>
