<svg width="86" height="22" viewBox="0 0 86 22" fill="none" xmlns="http://www.w3.org/2000/svg">
<path d="M83.7396 16.7308C82.6236 16.7308 81.7496 16.4298 81.1266 15.8248C80.5026 15.2198 80.1906 14.3788 80.1906 13.3148V6.71478H78.1876V4.24378H80.2016L80.5606 0.94378H82.9196V4.24378H85.9996V6.71878H82.9196V12.9558C82.9128 13.2973 83.0407 13.6278 83.2756 13.8758C83.3959 14.0028 83.5421 14.1025 83.7042 14.1681C83.8664 14.2336 84.0408 14.2635 84.2156 14.2558H85.9996V16.7308H83.7396ZM71.6906 16.9638C70.2016 16.9638 69.0046 16.6108 68.0976 15.9038C67.198 15.2048 66.5803 14.2051 66.3576 13.0878H69.3186C69.4476 13.5168 69.7356 13.8808 70.1226 14.1078C70.5985 14.3814 71.142 14.5152 71.6906 14.4938C73.2696 14.4938 74.0636 14.0538 74.0636 13.2038C74.0636 12.7808 73.8146 12.4568 73.3186 12.2338C72.741 11.9876 72.137 11.8085 71.5186 11.6998C70.8022 11.5614 70.093 11.3878 69.3936 11.1798C68.6816 10.9711 68.0488 10.553 67.5776 9.97978C67.0846 9.39278 66.8366 8.62078 66.8346 7.66478C66.8276 7.16174 66.9369 6.66388 67.1541 6.21009C67.3713 5.75629 67.6904 5.35885 68.0866 5.04878C68.9236 4.35378 70.0846 4.00678 71.5696 4.00878C73.0536 4.00878 74.2326 4.33878 75.1066 4.99878C75.9751 5.65071 76.5728 6.59986 76.7856 7.66478H73.8196C73.5036 6.88378 72.7586 6.48478 71.5776 6.48378C70.3106 6.48378 69.6786 6.87678 69.6786 7.66378C69.6811 7.84463 69.7318 8.02153 69.8255 8.17623C69.9192 8.33093 70.0525 8.45781 70.2116 8.54378C70.618 8.78816 71.0692 8.94865 71.5386 9.01578C72.1256 9.11578 72.7066 9.24878 73.2786 9.41578C73.8716 9.58478 74.4526 9.79178 75.0186 10.0358C75.5699 10.2836 76.0364 10.6876 76.3606 11.1978C76.7355 11.7958 76.9226 12.4924 76.8976 13.1978C76.9096 13.7228 76.7954 14.2431 76.5646 14.7148C76.3336 15.1874 75.9932 15.5981 75.5716 15.9128C74.6896 16.6128 73.3966 16.9628 71.6906 16.9638ZM62.8616 5.25778C61.9496 4.44078 60.6716 4.03278 59.0276 4.03278C57.7176 4.03278 56.6186 4.38278 55.7306 5.08578C54.8556 5.76948 54.2372 6.72863 53.9756 7.80778H56.7746C56.9166 7.39978 57.1886 7.04778 57.5486 6.80678C57.9859 6.51515 58.5044 6.36952 59.0296 6.39078C59.7996 6.39078 60.4056 6.58878 60.8496 6.98078C61.0745 7.1892 61.2505 7.44474 61.3651 7.72911C61.4797 8.01349 61.5301 8.31968 61.5126 8.62578V9.22178H58.3066C56.8326 9.22178 55.6746 9.59178 54.8326 10.3328C54.4313 10.6743 54.1107 11.1004 53.8937 11.5806C53.6767 12.0607 53.5688 12.583 53.5776 13.1098C53.5623 13.6307 53.659 14.1489 53.861 14.6293C54.063 15.1097 54.3657 15.5413 54.7486 15.8948C55.5276 16.6278 56.5596 16.9948 57.8446 16.9948C58.6406 17.013 59.4285 16.8308 60.1356 16.4648C60.7029 16.1889 61.1832 15.7619 61.5236 15.2308H61.6386L61.8716 16.7708H64.2396V8.63078C64.2346 7.20178 63.7756 6.07778 62.8616 5.25778ZM61.5156 11.9278C61.5312 12.2985 61.465 12.6682 61.3215 13.0104C61.1781 13.3526 60.9609 13.659 60.6856 13.9078C60.1366 14.3938 59.3856 14.6378 58.4346 14.6378C57.7426 14.6378 57.2126 14.4798 56.8476 14.1718C56.671 14.0285 56.5294 13.8469 56.4336 13.6407C56.3377 13.4345 56.2902 13.2091 56.2946 12.9818C56.2946 11.8818 57.0176 11.3358 58.4346 11.3358H61.5156V11.9278ZM46.4726 16.9908C44.6766 16.9908 43.2406 16.4168 42.1656 15.2708C41.0916 14.1228 40.5536 12.5358 40.5516 10.5088C40.5516 8.48678 41.0876 6.90078 42.1596 5.75278C43.2306 4.60478 44.6686 4.03078 46.4726 4.03278C47.9386 4.03278 49.1526 4.42078 50.1166 5.19878C51.0614 5.94789 51.7356 6.98518 52.0366 8.15278H49.3206C49.0527 7.63572 48.6425 7.20604 48.1384 6.91441C47.6343 6.62277 47.0574 6.48134 46.4756 6.50678C46.0337 6.49136 45.5941 6.57765 45.1908 6.75901C44.7875 6.94037 44.4313 7.21194 44.1496 7.55278C43.5596 8.25278 43.2646 9.23778 43.2646 10.5088C43.2646 11.7808 43.5596 12.7668 44.1496 13.4658C44.4302 13.8082 44.7861 14.0812 45.1896 14.2633C45.5931 14.4455 46.0332 14.5319 46.4756 14.5158C47.0575 14.5403 47.6343 14.3983 48.1382 14.1063C48.6422 13.8144 49.0524 13.3847 49.3206 12.8678H52.0366C51.7368 14.0367 51.0624 15.0753 50.1166 15.8248C49.1546 16.6018 47.9396 16.9908 46.4726 16.9908ZM30.4546 21.4768L32.3496 16.7598L27.2616 4.27278H30.2216L33.6556 13.1098H33.7706L37.2096 4.27278H40.1696L33.2976 21.4768H30.4546ZM24.7036 5.25778C23.7906 4.44078 22.5126 4.03278 20.8686 4.03278C19.5586 4.03278 18.4566 4.38278 17.5726 5.08578C16.6968 5.76889 16.0779 6.72824 15.8166 7.80778H18.6166C18.7566 7.39878 19.0286 7.04778 19.3896 6.80678C19.827 6.51443 20.346 6.36875 20.8716 6.39078C21.6406 6.39078 22.2476 6.58778 22.6916 6.98078C22.9169 7.1889 23.0932 7.44438 23.2078 7.72884C23.3224 8.01329 23.3726 8.31962 23.3546 8.62578V9.22178H20.1476C18.6736 9.22178 17.5156 9.59178 16.6746 10.3328C16.2727 10.6738 15.9516 11.0998 15.7344 11.5801C15.5172 12.0603 15.4093 12.5828 15.4186 13.1098C15.4026 13.6304 15.4985 14.1485 15.6999 14.6289C15.9012 15.1094 16.2032 15.541 16.5856 15.8948C17.3646 16.6278 18.3956 16.9948 19.6816 16.9948C20.4773 17.013 21.2648 16.8307 21.9716 16.4648C22.5396 16.1892 23.0206 15.7622 23.3616 15.2308H23.4756L23.7076 16.7708H26.0716V8.63078C26.0716 7.20178 25.6156 6.07778 24.7036 5.25778ZM23.3526 11.9278C23.3693 12.2987 23.3035 12.6686 23.16 13.011C23.0164 13.3534 22.7988 13.6597 22.5226 13.9078C21.9746 14.3948 21.2246 14.6378 20.2726 14.6378C19.5796 14.6378 19.0466 14.4818 18.6846 14.1718C18.5079 14.0286 18.3663 13.847 18.2705 13.6407C18.1746 13.4345 18.1271 13.2091 18.1316 12.9818C18.1386 11.8858 18.8516 11.3378 20.2716 11.3358H23.3516L23.3526 11.9278ZM9.3426 10.5098C9.7646 10.3978 10.1726 10.2378 10.5586 10.0348C11.0088 9.78931 11.4301 9.49413 11.8146 9.15478C12.2785 8.72997 12.6367 8.20261 12.8606 7.61478C13.1296 6.92478 13.2616 6.18978 13.2506 5.44978C13.2506 3.87978 12.7476 2.61978 11.7396 1.67478C10.7306 0.728779 9.4196 0.25678 7.8036 0.25978H0.933594V16.7598H3.89359V10.6378H6.14059L10.4076 16.7598H13.7246L9.3426 10.5098ZM3.89359 8.02778V2.85778H7.5626C8.4026 2.85778 9.0656 3.08478 9.5526 3.53778C10.0386 3.99078 10.2826 4.62578 10.2866 5.44278C10.2866 6.25978 10.0406 6.89678 9.54759 7.35278C9.00525 7.82194 8.3028 8.06374 7.58659 8.02778H3.89359Z" fill="white"/>
</svg>
