<svg width="49" height="40" viewBox="0 0 49 40" fill="none" xmlns="http://www.w3.org/2000/svg">
<path d="M25.907 16.868H23.03V18.977H25.906L25.907 16.868ZM27.297 26.279L25.907 24.884V20.93H23.03V23.039H24.05V26.295H16.631V23.039H18.022V16.869H16.632V13.612H29.06L31.131 15.721V18.357L29.276 19.721L31.131 21.116V23.488H32.306V26.279H27.297ZM31.162 3.256V9.876L28.38 12.666H20.806L18.023 9.876V3.256H16.633V0H24.268V3.256H23.062V9.426H27.313V3.256H26.278V0H32.337V3.256H31.147M39.726 3.256V5.426H43.992V3.256H39.726ZM46.991 7.643H39.726V9.395H41.07V12.651H33.31V9.395H34.702V3.255H33.311V0H46.759L49 2.17V5.643L46.991 7.628M46.156 26.279H36.603L33.311 23.023V16.853L36.603 13.597H44.131L45.058 14.791L45.986 13.612H49V18.946H45.058V16.853H38.443V23.054H45.058V20.93H49V23.488L46.156 26.279ZM30.946 39.953H16.632V36.698H18.023V30.543H16.633V27.287H24.423V30.543H23.03V36.713H28.41V32.62H32.336V38.45L30.946 39.953ZM47.609 39.953H33.295V36.698H34.656V30.543H33.296V27.287H41.055V30.543H39.664V36.713H45.074V32.62H49V38.45L47.609 39.953ZM13.232 12.667H4.482L3.447 11.55L2.52 12.667H0V8.79H3.524V9.875H10.124V8.061H2.272L0 5.938V2.838L2.628 0H10.48L11.516 1.116L12.443 0H14.963V3.876H11.408V2.791H5.472V4.621H13.139L15.705 7.054V10L13.232 12.667ZM14.282 26.279H0V23.023H1.391V16.9H0V13.644H14.283L15.673 15.194V19.536L11.748 19.566V16.9H6.399V18.76H8.718V21.117H6.399V23.04H11.748V20.404H15.674V24.745L14.283 26.295M14.283 39.939H0V36.683H1.391V30.543H0V27.288H14.283L15.673 28.838V33.179H11.748V30.544H6.399V32.451H8.718V34.776H6.399V36.746H11.748V34.11H15.674V38.45L14.283 40" fill="white"/>
</svg>
